<svg width="16" height="14" viewBox="0 0 16 14" fill="none" xmlns="http://www.w3.org/2000/svg">
<path d="M16 1.8856C15.405 2.14781 14.771 2.32161 14.11 2.406C14.79 1.99812 15.309 1.35717 15.553 0.584607C14.919 0.964357 14.219 1.23259 13.473 1.38228C12.871 0.738316 12.013 0.339478 11.077 0.339478C9.261 0.339478 7.799 1.8203 7.799 3.63567C7.799 3.89687 7.821 4.14803 7.875 4.38713C5.148 4.25351 2.735 2.94046 1.114 0.940246C0.831 1.43352 0.665 1.99812 0.665 2.60592C0.665 3.74718 1.25 4.75884 2.122 5.34454C1.595 5.3345 1.078 5.18079 0.64 4.93867C0.64 4.94872 0.64 4.96178 0.64 4.97484C0.64 6.57622 1.777 7.90635 3.268 8.21276C3.001 8.2861 2.71 8.32126 2.408 8.32126C2.198 8.32126 1.986 8.3092 1.787 8.265C2.212 9.57001 3.418 10.5294 4.852 10.5606C3.736 11.4376 2.319 11.9661 0.785 11.9661C0.516 11.9661 0.258 11.954 0 11.9208C1.453 12.8622 3.175 13.3997 5.032 13.3997C11.068 13.3997 14.368 8.37651 14.368 4.02245C14.368 3.87678 14.363 3.73613 14.356 3.59649C15.007 3.13235 15.554 2.55268 16 1.8856Z" fill="#B0B8BC"/>
</svg>
