<svg width="16" height="12" viewBox="0 0 16 12" fill="none" xmlns="http://www.w3.org/2000/svg">
<path fill-rule="evenodd" clip-rule="evenodd" d="M13.456 0.771381C14.415 0.825631 14.886 0.968288 15.32 1.74386C15.772 2.51843 16 3.85258 16 6.20241V6.20542V6.21045C16 8.54922 15.772 9.89342 15.321 10.66C14.887 11.4355 14.416 11.5762 13.457 11.6415C12.498 11.6967 10.089 11.7299 8.002 11.7299C5.911 11.7299 3.501 11.6967 2.543 11.6405C1.586 11.5752 1.115 11.4345 0.677 10.6589C0.23 9.89241 0 8.54822 0 6.20944V6.20743V6.20442V6.2014C0 3.85258 0.23 2.51843 0.677 1.74386C1.115 0.967284 1.587 0.825631 2.544 0.770376C3.501 0.70608 5.911 0.678955 8.002 0.678955C10.089 0.678955 12.498 0.70608 13.456 0.771381ZM11 6.20442L6 3.19053V9.21831L11 6.20442Z" fill="#B0B8BC"/>
</svg>
